<svg xmlns="http://www.w3.org/2000/svg" width="194.989" height="88.711" viewBox="0 0 194.989 88.711"><g id="Group_252" data-name="Group 252" transform="translate(-140 -4682.594)"><g id="Group_110" data-name="Group 110" transform="translate(140 4763.621)"><rect id="Rectangle_108" data-name="Rectangle 108" width="1.486" height="7.397" transform="translate(0 0.149)" fill="#fff"></rect><path id="Path_90" data-name="Path 90" d="M2.485,67.55l1.457-.142a1.777,1.777,0,0,0,.53,1.071,1.606,1.606,0,0,0,1.081.351,1.7,1.7,0,0,0,1.088-.3.941.941,0,0,0,.369-.72.673.673,0,0,0-.159-.445,1.12,1.12,0,0,0-.536-.321c-.173-.061-.568-.169-1.19-.326a4.012,4.012,0,0,1-1.672-.733,1.946,1.946,0,0,1-.365-2.55,2.07,2.07,0,0,1,.921-.75,3.764,3.764,0,0,1,1.45-.26,3.073,3.073,0,0,1,2.091.618,2.158,2.158,0,0,1,.738,1.638l-1.5.052a1.2,1.2,0,0,0-.406-.814,1.489,1.489,0,0,0-.941-.251,1.7,1.7,0,0,0-1.022.269.535.535,0,0,0-.233.451.548.548,0,0,0,.229.457,3.829,3.829,0,0,0,1.361.492,6.891,6.891,0,0,1,1.6.535,1.989,1.989,0,0,1,.815.757,2.143,2.143,0,0,1,.3,1.181A2.263,2.263,0,0,1,8.148,69a2.149,2.149,0,0,1-1,.828,4.187,4.187,0,0,1-1.612.273,3.2,3.2,0,0,1-2.158-.657,2.83,2.83,0,0,1-.895-1.9" transform="translate(0.02 -62.422)" fill="#fff"></path><path id="Path_91" data-name="Path 91" d="M9.752,69.962V62.632h1.487v6.082H14.95v1.248Z" transform="translate(0.075 -62.421)" fill="#fff"></path><path id="Path_92" data-name="Path 92" d="M19.91,67.035l-1.048-2.751-1,2.751Zm2.715,2.928h-1.6l-.645-1.686h-2.96l-.608,1.686h-1.6l2.838-7.395h1.6Z" transform="translate(0.118 -62.42)" fill="#fff"></path><path id="Path_93" data-name="Path 93" d="M23.332,69.962V62.567h2.243L26.9,67.61l1.3-5.043h2.257v7.395H29.075l-.011-5.824-1.449,5.824H26.173l-1.45-5.824-.008,5.824Z" transform="translate(0.181 -62.42)" fill="#fff"></path><rect id="Rectangle_109" data-name="Rectangle 109" width="1.486" height="7.397" transform="translate(32.083 0.149)" fill="#fff"></rect><path id="Path_94" data-name="Path 94" d="M39.451,67.235l1.461.438A3.336,3.336,0,0,1,39.8,69.492a3.457,3.457,0,0,1-4.381-.418,3.83,3.83,0,0,1-.954-2.754,4.04,4.04,0,0,1,.954-2.874,3.283,3.283,0,0,1,2.512-1.022,3.076,3.076,0,0,1,2.2.8,2.845,2.845,0,0,1,.757,1.363l-1.476.354a1.53,1.53,0,0,0-1.55-1.243,1.679,1.679,0,0,0-1.336.593,2.9,2.9,0,0,0-.512,1.913,3.139,3.139,0,0,0,.5,2.006,1.626,1.626,0,0,0,1.3.6,1.5,1.5,0,0,0,1.029-.381,2.264,2.264,0,0,0,.609-1.194" transform="translate(0.269 -62.421)" fill="#fff"></path><path id="Path_95" data-name="Path 95" d="M44.966,69.962V62.567h5.079V63.81H46.464v1.773h3.081v1.239H46.464v3.141Z" transform="translate(0.35 -62.42)" fill="#fff"></path><rect id="Rectangle_110" data-name="Rectangle 110" width="1.491" height="7.397" transform="translate(51.564 0.149)" fill="#fff"></rect><path id="Path_96" data-name="Path 96" d="M54.067,69.962V62.567h1.446l3.023,4.943V62.567h1.382v7.395H58.423l-2.974-4.835v4.835Z" transform="translate(0.421 -62.42)" fill="#fff"></path><path id="Path_97" data-name="Path 97" d="M65.4,67.035l-1.052-2.751-.992,2.751Zm2.723,2.928h-1.6l-.645-1.686H62.9l-.6,1.686H60.7l2.834-7.395h1.6Z" transform="translate(0.473 -62.42)" fill="#fff"></path><path id="Path_98" data-name="Path 98" d="M68.847,69.962V62.567H70.3L73.32,67.51V62.567H74.7v7.395H73.212l-2.974-4.835v4.835Z" transform="translate(0.536 -62.42)" fill="#fff"></path><path id="Path_99" data-name="Path 99" d="M80.964,67.235l1.453.438a3.326,3.326,0,0,1-1.107,1.819,3.138,3.138,0,0,1-1.962.594,3.172,3.172,0,0,1-2.423-1.012,3.846,3.846,0,0,1-.949-2.754,4.046,4.046,0,0,1,.957-2.874,3.258,3.258,0,0,1,2.5-1.022,3.089,3.089,0,0,1,2.206.8,2.949,2.949,0,0,1,.758,1.363l-1.473.354A1.538,1.538,0,0,0,79.367,63.7a1.682,1.682,0,0,0-1.332.593,2.9,2.9,0,0,0-.515,1.913,3.165,3.165,0,0,0,.5,2.006,1.649,1.649,0,0,0,1.31.6,1.484,1.484,0,0,0,1.019-.381,2.212,2.212,0,0,0,.615-1.194" transform="translate(0.591 -62.421)" fill="#fff"></path><rect id="Rectangle_111" data-name="Rectangle 111" width="1.483" height="7.397" transform="translate(84.231 0.149)" fill="#fff"></rect><path id="Path_100" data-name="Path 100" d="M90.412,67.035l-1.048-2.751-.985,2.751Zm2.726,2.928h-1.6l-.646-1.686h-2.96l-.615,1.686h-1.6l2.842-7.395h1.6Z" transform="translate(0.666 -62.42)" fill="#fff"></path><path id="Path_101" data-name="Path 101" d="M93.91,69.962V62.632H95.4v6.082h3.711v1.248Z" transform="translate(0.731 -62.421)" fill="#fff"></path><path id="Path_102" data-name="Path 102" d="M102.4,67.55l1.449-.142a1.78,1.78,0,0,0,.525,1.071,1.606,1.606,0,0,0,1.083.351,1.689,1.689,0,0,0,1.091-.3.934.934,0,0,0,.363-.72.707.707,0,0,0-.145-.445,1.227,1.227,0,0,0-.543-.321c-.17-.061-.571-.169-1.191-.326a4.156,4.156,0,0,1-1.683-.733,1.932,1.932,0,0,1-.671-1.491,1.886,1.886,0,0,1,.32-1.058,2.021,2.021,0,0,1,.919-.75,3.737,3.737,0,0,1,1.445-.26,3.087,3.087,0,0,1,2.1.618,2.2,2.2,0,0,1,.737,1.638l-1.5.052a1.229,1.229,0,0,0-.4-.814,1.5,1.5,0,0,0-.945-.251,1.694,1.694,0,0,0-1.017.269.529.529,0,0,0-.237.451.586.586,0,0,0,.221.457,4.026,4.026,0,0,0,1.372.492,6.92,6.92,0,0,1,1.607.535,2.084,2.084,0,0,1,.819.757,2.287,2.287,0,0,1,.3,1.181,2.21,2.21,0,0,1-.354,1.2,2.128,2.128,0,0,1-1.007.828,4.135,4.135,0,0,1-1.6.273,3.174,3.174,0,0,1-2.159-.657,2.794,2.794,0,0,1-.887-1.9" transform="translate(0.797 -62.422)" fill="#fff"></path><path id="Path_103" data-name="Path 103" d="M109.617,69.962V62.567h5.461V63.81H111.1v1.647h3.7v1.239h-3.7v2.02h4.12v1.248Z" transform="translate(0.852 -62.42)" fill="#fff"></path><path id="Path_104" data-name="Path 104" d="M117.935,65.689h1.092a6.184,6.184,0,0,0,1.326-.091.8.8,0,0,0,.41-.315,1.027,1.027,0,0,0,.157-.552.913.913,0,0,0-.2-.606.941.941,0,0,0-.56-.294c-.119-.014-.477-.022-1.072-.022h-1.154Zm-1.486,4.274V62.569h3.116a5.388,5.388,0,0,1,1.716.2,1.665,1.665,0,0,1,.862.71,2.128,2.128,0,0,1,.314,1.161,1.984,1.984,0,0,1-.488,1.378,2.274,2.274,0,0,1-1.442.68,3.394,3.394,0,0,1,.788.625,7.3,7.3,0,0,1,.84,1.2l.906,1.445h-1.781l-1.065-1.61a9.744,9.744,0,0,0-.787-1.088,1.221,1.221,0,0,0-.441-.308,2.5,2.5,0,0,0-.753-.079h-.3v3.086Z" transform="translate(0.906 -62.419)" fill="#fff"></path><path id="Path_105" data-name="Path 105" d="M125.514,69.962l-2.606-7.395h1.613l1.852,5.478,1.814-5.478h1.588l-2.643,7.395Z" transform="translate(0.956 -62.42)" fill="#fff"></path><rect id="Rectangle_112" data-name="Rectangle 112" width="1.491" height="7.397" transform="translate(131.451 0.149)" fill="#fff"></rect><path id="Path_106" data-name="Path 106" d="M138.053,67.235l1.457.438a3.323,3.323,0,0,1-1.1,1.819,3.472,3.472,0,0,1-4.392-.418,3.914,3.914,0,0,1-.942-2.754,4.094,4.094,0,0,1,.95-2.874,3.288,3.288,0,0,1,2.512-1.022,3.087,3.087,0,0,1,2.2.8,2.933,2.933,0,0,1,.76,1.363l-1.48.354a1.553,1.553,0,0,0-.544-.909,1.572,1.572,0,0,0-1.01-.334,1.663,1.663,0,0,0-1.33.593,2.861,2.861,0,0,0-.514,1.913,3.113,3.113,0,0,0,.5,2.006,1.62,1.62,0,0,0,1.294.6,1.477,1.477,0,0,0,1.024-.381,2.186,2.186,0,0,0,.615-1.194" transform="translate(1.036 -62.421)" fill="#fff"></path><path id="Path_107" data-name="Path 107" d="M140.72,69.962V62.567h5.473V63.81h-3.972v1.647H145.9v1.239h-3.681v2.02h4.106v1.248Z" transform="translate(1.094 -62.42)" fill="#fff"></path><path id="Path_108" data-name="Path 108" d="M147.149,67.55l1.453-.142a1.777,1.777,0,0,0,.53,1.071,1.639,1.639,0,0,0,1.093.351,1.691,1.691,0,0,0,1.077-.3.912.912,0,0,0,.373-.72.64.64,0,0,0-.161-.445,1.2,1.2,0,0,0-.523-.321c-.177-.061-.579-.169-1.2-.326a4,4,0,0,1-1.674-.733,1.945,1.945,0,0,1-.371-2.55,2.068,2.068,0,0,1,.926-.75,3.743,3.743,0,0,1,1.453-.26,3.077,3.077,0,0,1,2.084.618,2.154,2.154,0,0,1,.738,1.638l-1.493.052a1.251,1.251,0,0,0-.409-.814,1.491,1.491,0,0,0-.935-.251,1.683,1.683,0,0,0-1.02.269.537.537,0,0,0-.238.451.592.592,0,0,0,.218.457,3.983,3.983,0,0,0,1.368.492,7.052,7.052,0,0,1,1.614.535,2.09,2.09,0,0,1,.816.757A2.34,2.34,0,0,1,152.8,69a2.108,2.108,0,0,1-.99.828,4.224,4.224,0,0,1-1.611.273,3.18,3.18,0,0,1-2.156-.657,2.855,2.855,0,0,1-.9-1.9" transform="translate(1.146 -62.422)" fill="#fff"></path><path id="Path_109" data-name="Path 109" d="M158.713,66.754v1.959h1.379a8.159,8.159,0,0,0,1.017-.036.967.967,0,0,0,.536-.3.888.888,0,0,0,.2-.627.984.984,0,0,0-.154-.559.89.89,0,0,0-.465-.336,5.083,5.083,0,0,0-1.321-.1Zm0-2.946v1.7h.977c.582,0,.938-.006,1.077-.021a1.015,1.015,0,0,0,.6-.267.774.774,0,0,0,.214-.575.819.819,0,0,0-.18-.557.888.888,0,0,0-.556-.258c-.154-.015-.573-.021-1.273-.021Zm-1.486-1.242h2.948a8.492,8.492,0,0,1,1.31.071,1.974,1.974,0,0,1,.771.306,1.94,1.94,0,0,1,.562.618,1.768,1.768,0,0,1,.222.868,1.736,1.736,0,0,1-.274.96,1.813,1.813,0,0,1-.762.648,1.964,1.964,0,0,1,1.032.672,1.8,1.8,0,0,1,.362,1.108,2.2,2.2,0,0,1-.234.981,1.911,1.911,0,0,1-.641.76,2.059,2.059,0,0,1-.993.354c-.252.027-.856.04-1.8.052h-2.507Z" transform="translate(1.224 -62.42)" fill="#fff"></path><path id="Path_110" data-name="Path 110" d="M165.842,66.261a2.84,2.84,0,0,0,.575,1.915,2.006,2.006,0,0,0,2.956.005,2.914,2.914,0,0,0,.559-1.943,2.8,2.8,0,0,0-.548-1.906,2.059,2.059,0,0,0-2.971.005,2.808,2.808,0,0,0-.571,1.924m-1.548.047a4.677,4.677,0,0,1,.351-1.9,3.2,3.2,0,0,1,.682-1.017,2.95,2.95,0,0,1,.965-.668,4.045,4.045,0,0,1,1.586-.3,3.51,3.51,0,0,1,2.625,1.017,3.944,3.944,0,0,1,.981,2.837,3.9,3.9,0,0,1-.977,2.809,3.436,3.436,0,0,1-2.6,1.021,3.474,3.474,0,0,1-2.629-1.015,3.818,3.818,0,0,1-.981-2.782" transform="translate(1.279 -62.422)" fill="#fff"></path><path id="Path_111" data-name="Path 111" d="M176.514,67.035l-1.044-2.751-1,2.751Zm2.719,2.928h-1.6l-.642-1.686H174.02l-.6,1.686h-1.6l2.838-7.395h1.6Z" transform="translate(1.338 -62.42)" fill="#fff"></path><path id="Path_112" data-name="Path 112" d="M181.465,65.689h1.084a6.174,6.174,0,0,0,1.327-.091.781.781,0,0,0,.413-.315.974.974,0,0,0,.149-.552.89.89,0,0,0-.2-.606.93.93,0,0,0-.56-.294c-.119-.014-.476-.022-1.072-.022h-1.146Zm-1.494,4.274V62.569H183.1a5.324,5.324,0,0,1,1.7.2,1.687,1.687,0,0,1,.859.71,2.13,2.13,0,0,1,.318,1.161,2.018,2.018,0,0,1-.48,1.378,2.309,2.309,0,0,1-1.457.68,3.559,3.559,0,0,1,.8.625,7.837,7.837,0,0,1,.841,1.2l.9,1.445H184.8l-1.066-1.61a10.074,10.074,0,0,0-.779-1.088,1.189,1.189,0,0,0-.454-.308,2.463,2.463,0,0,0-.743-.079h-.3v3.086Z" transform="translate(1.4 -62.419)" fill="#fff"></path><path id="Path_113" data-name="Path 113" d="M188.85,63.809v4.908h1.112a4.334,4.334,0,0,0,.9-.066,1.382,1.382,0,0,0,.595-.313,1.583,1.583,0,0,0,.39-.711,5.268,5.268,0,0,0,.15-1.361,4.88,4.88,0,0,0-.15-1.323,1.773,1.773,0,0,0-.424-.718,1.419,1.419,0,0,0-.685-.346,6.917,6.917,0,0,0-1.215-.07Zm-1.486-1.242h2.716a5.226,5.226,0,0,1,1.4.141,2.46,2.46,0,0,1,1.1.682,3.171,3.171,0,0,1,.7,1.194,5.367,5.367,0,0,1,.241,1.752,4.782,4.782,0,0,1-.227,1.572,3.2,3.2,0,0,1-.789,1.307,2.526,2.526,0,0,1-1.04.59,4.441,4.441,0,0,1-1.313.157h-2.8Z" transform="translate(1.458 -62.42)" fill="#fff"></path></g><g id="Group_111" data-name="Group 111" transform="translate(204 4682.594)"><path id="Path_86" data-name="Path 86" d="M87.181,1.343l10.572,10.52L91.779,17.77S85.88,12,84.847,10.963a1.118,1.118,0,0,0-1.813.066l-1.092,1.516v8.74h4.677v6.2H81.942V49.43l-8.485-5.757V16.014Z" transform="translate(-61.197 -1.342)" fill="#fff"></path><path id="Path_88" data-name="Path 88" d="M105.036,33.06,100,39.2l-7.469-5.219-.67.663c-.971,1.7.251,2.117.251,2.117l12.923,9.415L94.222,61.487h-8.31L73.654,53.411V44s10.076,6.991,14.208,9.644c4.118,2.671,6.316-.66,6.316-.66l2.434-3.333L83.73,39.687,95.141,25.6Z" transform="translate(-61.178 5.251)" fill="#fff"></path><path id="Path_82" data-name="Path 82" d="M73.861,8.565l-5.69,6.116L62.184,8.747l5.927-6.114Z" transform="translate(-62.184 -1.23)" fill="#fff"></path><path id="Path_84" data-name="Path 84" d="M71.861,13.425v38.5l-8.135,5.453V18.9Z" transform="translate(-62.049 1.967)" fill="#fff"></path><path id="Path_114" data-name="Path 114" d="M113.856,44.95a2.887,2.887,0,0,0,2.313,1.679,22.994,22.994,0,0,1,4.009,1.724V40.083a3.235,3.235,0,0,0-2.046-3.563l-4.277,2.271ZM112.712.368V32.611l7.6-4.011c6.355,1.218,6.547,9.653,6.547,9.653V49.127L115.68,58.773l-5.579-3.15c-6.98,5.709-13.048,5.529-13.048,5.529a22.291,22.291,0,0,0,8.192-16.1V5.653Z" transform="translate(-59.126 5.587)" fill="#fff"></path></g></g></svg>