<svg xmlns="http://www.w3.org/2000/svg" width="141.071" height="55.87" viewBox="0 0 141.071 55.87">
  <g id="Group_253" data-name="Group 253" transform="translate(-140 -66.422)">
    <g id="Group_96" data-name="Group 96" transform="translate(140 116.732)">
      <rect id="Rectangle_108" data-name="Rectangle 108" width="1.075" height="5.352" transform="translate(0 0.108)" fill="#283887"/>
      <path id="Path_90" data-name="Path 90" d="M2.485,66.132l1.054-.1a1.286,1.286,0,0,0,.384.775,1.162,1.162,0,0,0,.782.254,1.226,1.226,0,0,0,.787-.22.681.681,0,0,0,.267-.521A.487.487,0,0,0,5.644,66a.811.811,0,0,0-.388-.233c-.125-.044-.411-.122-.861-.236A2.9,2.9,0,0,1,3.186,65a1.408,1.408,0,0,1-.264-1.845,1.5,1.5,0,0,1,.666-.542,2.723,2.723,0,0,1,1.049-.188,2.223,2.223,0,0,1,1.513.447,1.561,1.561,0,0,1,.534,1.185L5.6,64.092a.866.866,0,0,0-.294-.589,1.077,1.077,0,0,0-.681-.182,1.232,1.232,0,0,0-.739.195.387.387,0,0,0-.168.327.4.4,0,0,0,.166.33,2.77,2.77,0,0,0,.984.356,4.985,4.985,0,0,1,1.16.387,1.439,1.439,0,0,1,.59.548,1.551,1.551,0,0,1,.22.855,1.638,1.638,0,0,1-.257.867,1.555,1.555,0,0,1-.722.6,3.029,3.029,0,0,1-1.167.2,2.311,2.311,0,0,1-1.561-.475,2.048,2.048,0,0,1-.647-1.374" transform="translate(-0.673 -62.422)" fill="#283887"/>
      <path id="Path_91" data-name="Path 91" d="M9.752,67.935v-5.3h1.076v4.4h2.685v.9Z" transform="translate(-2.642 -62.479)" fill="#283887"/>
      <path id="Path_92" data-name="Path 92" d="M18.612,65.8l-.758-1.99-.722,1.99Zm1.964,2.118H19.422l-.467-1.22H16.814l-.44,1.22H15.217l2.053-5.35h1.157Z" transform="translate(-4.122 -62.461)" fill="#283887"/>
      <path id="Path_93" data-name="Path 93" d="M23.332,67.917v-5.35h1.623l.96,3.648.941-3.648H28.49v5.35h-1L27.479,63.7,26.43,67.917H25.388L24.338,63.7l-.006,4.214Z" transform="translate(-6.321 -62.461)" fill="#283887"/>
      <rect id="Rectangle_109" data-name="Rectangle 109" width="1.075" height="5.352" transform="translate(23.212 0.108)" fill="#283887"/>
      <path id="Path_94" data-name="Path 94" d="M38.073,65.9l1.057.317a2.414,2.414,0,0,1-.8,1.316,2.5,2.5,0,0,1-3.169-.3,2.771,2.771,0,0,1-.69-1.993,2.923,2.923,0,0,1,.69-2.079,2.376,2.376,0,0,1,1.818-.739,2.226,2.226,0,0,1,1.591.581,2.059,2.059,0,0,1,.548.986l-1.068.256a1.107,1.107,0,0,0-1.121-.9,1.215,1.215,0,0,0-.967.429,2.1,2.1,0,0,0-.37,1.384,2.271,2.271,0,0,0,.362,1.452,1.176,1.176,0,0,0,.94.432,1.082,1.082,0,0,0,.744-.276,1.638,1.638,0,0,0,.44-.864" transform="translate(-9.336 -62.422)" fill="#283887"/>
      <path id="Path_95" data-name="Path 95" d="M44.966,67.917v-5.35h3.675v.9H46.049v1.282h2.229v.9H46.049v2.273Z" transform="translate(-12.181 -62.461)" fill="#283887"/>
      <rect id="Rectangle_110" data-name="Rectangle 110" width="1.078" height="5.352" transform="translate(37.306 0.108)" fill="#283887"/>
      <path id="Path_96" data-name="Path 96" d="M54.067,67.917v-5.35h1.046L57.3,66.143V62.567h1v5.35H57.219l-2.152-3.5v3.5Z" transform="translate(-14.645 -62.461)" fill="#283887"/>
      <path id="Path_97" data-name="Path 97" d="M64.1,65.8l-.761-1.99-.717,1.99Zm1.97,2.118H64.907L64.44,66.7H62.29l-.433,1.22H60.7l2.05-5.35h1.161Z" transform="translate(-16.443 -62.461)" fill="#283887"/>
      <path id="Path_98" data-name="Path 98" d="M68.847,67.917v-5.35H69.9l2.184,3.576V62.567h1v5.35H72l-2.152-3.5v3.5Z" transform="translate(-18.65 -62.461)" fill="#283887"/>
      <path id="Path_99" data-name="Path 99" d="M79.584,65.9l1.051.317a2.407,2.407,0,0,1-.8,1.316,2.271,2.271,0,0,1-1.42.429,2.3,2.3,0,0,1-1.753-.732,2.782,2.782,0,0,1-.687-1.993,2.927,2.927,0,0,1,.693-2.079,2.357,2.357,0,0,1,1.81-.739,2.235,2.235,0,0,1,1.6.581,2.134,2.134,0,0,1,.548.986l-1.066.256a1.113,1.113,0,0,0-1.127-.9,1.217,1.217,0,0,0-.964.429,2.1,2.1,0,0,0-.373,1.384,2.29,2.29,0,0,0,.362,1.452,1.193,1.193,0,0,0,.948.432,1.074,1.074,0,0,0,.737-.276,1.6,1.6,0,0,0,.445-.864" transform="translate(-20.581 -62.422)" fill="#283887"/>
      <rect id="Rectangle_111" data-name="Rectangle 111" width="1.073" height="5.352" transform="translate(60.939 0.108)" fill="#283887"/>
      <path id="Path_100" data-name="Path 100" d="M89.114,65.8l-.758-1.99-.712,1.99Zm1.972,2.118h-1.16l-.467-1.22H87.318l-.445,1.22H85.718l2.056-5.35h1.155Z" transform="translate(-23.22 -62.461)" fill="#283887"/>
      <path id="Path_101" data-name="Path 101" d="M93.91,67.935v-5.3h1.075v4.4H97.67v.9Z" transform="translate(-25.439 -62.479)" fill="#283887"/>
      <path id="Path_102" data-name="Path 102" d="M102.395,66.132l1.048-.1a1.288,1.288,0,0,0,.38.775,1.162,1.162,0,0,0,.784.254,1.222,1.222,0,0,0,.79-.22.676.676,0,0,0,.262-.521.512.512,0,0,0-.105-.322.888.888,0,0,0-.393-.233c-.123-.044-.413-.122-.862-.236a3.006,3.006,0,0,1-1.218-.53,1.4,1.4,0,0,1-.486-1.079,1.365,1.365,0,0,1,.232-.766,1.462,1.462,0,0,1,.665-.542,2.7,2.7,0,0,1,1.046-.188,2.233,2.233,0,0,1,1.517.447,1.594,1.594,0,0,1,.533,1.185l-1.085.038a.889.889,0,0,0-.292-.589,1.085,1.085,0,0,0-.684-.182,1.226,1.226,0,0,0-.736.195.383.383,0,0,0-.171.327.424.424,0,0,0,.16.33,2.912,2.912,0,0,0,.992.356,5.006,5.006,0,0,1,1.163.387,1.508,1.508,0,0,1,.593.548,1.655,1.655,0,0,1,.214.855,1.6,1.6,0,0,1-.256.867,1.54,1.54,0,0,1-.728.6,2.991,2.991,0,0,1-1.16.2,2.3,2.3,0,0,1-1.562-.475,2.021,2.021,0,0,1-.642-1.374" transform="translate(-27.737 -62.422)" fill="#283887"/>
      <path id="Path_103" data-name="Path 103" d="M109.617,67.917v-5.35h3.951v.9h-2.876v1.191h2.677v.9h-2.677v1.461h2.981v.9Z" transform="translate(-29.695 -62.461)" fill="#283887"/>
      <path id="Path_104" data-name="Path 104" d="M117.524,64.826h.79a4.474,4.474,0,0,0,.96-.066.577.577,0,0,0,.3-.228.743.743,0,0,0,.114-.4.66.66,0,0,0-.144-.438.681.681,0,0,0-.405-.213c-.086-.01-.345-.016-.776-.016h-.835Zm-1.075,3.092V62.569H118.7a3.9,3.9,0,0,1,1.242.141,1.2,1.2,0,0,1,.623.514,1.539,1.539,0,0,1,.227.84,1.436,1.436,0,0,1-.353,1,1.645,1.645,0,0,1-1.043.492,2.455,2.455,0,0,1,.57.452,5.282,5.282,0,0,1,.608.868l.655,1.046h-1.288l-.771-1.165a7.048,7.048,0,0,0-.569-.787.883.883,0,0,0-.319-.223,1.812,1.812,0,0,0-.545-.057h-.217v2.233Z" transform="translate(-31.544 -62.461)" fill="#283887"/>
      <path id="Path_105" data-name="Path 105" d="M124.793,67.917l-1.885-5.35h1.167l1.34,3.963,1.312-3.963h1.149l-1.912,5.35Z" transform="translate(-33.295 -62.461)" fill="#283887"/>
      <rect id="Rectangle_112" data-name="Rectangle 112" width="1.078" height="5.352" transform="translate(95.102 0.108)" fill="#283887"/>
      <path id="Path_106" data-name="Path 106" d="M136.676,65.9l1.054.317a2.4,2.4,0,0,1-.8,1.316,2.512,2.512,0,0,1-3.177-.3,2.832,2.832,0,0,1-.682-1.993,2.962,2.962,0,0,1,.688-2.079,2.379,2.379,0,0,1,1.818-.739,2.233,2.233,0,0,1,1.592.581,2.122,2.122,0,0,1,.55.986l-1.071.256a1.124,1.124,0,0,0-.394-.658,1.137,1.137,0,0,0-.731-.241,1.2,1.2,0,0,0-.962.429,2.07,2.07,0,0,0-.372,1.384,2.252,2.252,0,0,0,.365,1.452,1.172,1.172,0,0,0,.936.432,1.069,1.069,0,0,0,.741-.276,1.581,1.581,0,0,0,.445-.864" transform="translate(-36.047 -62.422)" fill="#283887"/>
      <path id="Path_107" data-name="Path 107" d="M140.72,67.917v-5.35h3.96v.9h-2.873v1.191h2.663v.9h-2.663v1.461h2.97v.9Z" transform="translate(-38.12 -62.461)" fill="#283887"/>
      <path id="Path_108" data-name="Path 108" d="M147.149,66.132l1.051-.1a1.286,1.286,0,0,0,.384.775,1.186,1.186,0,0,0,.791.254,1.224,1.224,0,0,0,.779-.22.66.66,0,0,0,.27-.521.463.463,0,0,0-.117-.322.865.865,0,0,0-.378-.233c-.128-.044-.419-.122-.868-.236A2.9,2.9,0,0,1,147.85,65a1.407,1.407,0,0,1-.268-1.845,1.5,1.5,0,0,1,.67-.542,2.708,2.708,0,0,1,1.051-.188,2.226,2.226,0,0,1,1.508.447,1.559,1.559,0,0,1,.534,1.185l-1.08.038a.905.905,0,0,0-.3-.589,1.079,1.079,0,0,0-.677-.182,1.218,1.218,0,0,0-.738.195.388.388,0,0,0-.172.327.428.428,0,0,0,.157.33,2.882,2.882,0,0,0,.989.356,5.1,5.1,0,0,1,1.168.387,1.512,1.512,0,0,1,.591.548,1.693,1.693,0,0,1-.048,1.721,1.525,1.525,0,0,1-.716.6,3.056,3.056,0,0,1-1.166.2,2.3,2.3,0,0,1-1.56-.475,2.065,2.065,0,0,1-.65-1.374" transform="translate(-39.86 -62.422)" fill="#283887"/>
      <path id="Path_109" data-name="Path 109" d="M158.3,65.6v1.417h1a5.9,5.9,0,0,0,.736-.026.7.7,0,0,0,.388-.214.642.642,0,0,0,.148-.453.712.712,0,0,0-.112-.4.644.644,0,0,0-.336-.243,3.678,3.678,0,0,0-.956-.076Zm0-2.131V64.7h.707c.421,0,.679,0,.779-.015a.735.735,0,0,0,.435-.193.56.56,0,0,0,.155-.416.593.593,0,0,0-.131-.4.643.643,0,0,0-.4-.187c-.112-.011-.415-.015-.921-.015Zm-1.075-.9h2.133a6.143,6.143,0,0,1,.948.051,1.428,1.428,0,0,1,.558.222,1.4,1.4,0,0,1,.407.447,1.279,1.279,0,0,1,.16.628,1.256,1.256,0,0,1-.2.695,1.312,1.312,0,0,1-.551.469,1.421,1.421,0,0,1,.747.486,1.305,1.305,0,0,1,.262.8,1.59,1.59,0,0,1-.169.709,1.382,1.382,0,0,1-.464.55,1.489,1.489,0,0,1-.718.256c-.182.02-.619.029-1.3.038h-1.814Z" transform="translate(-42.59 -62.461)" fill="#283887"/>
      <path id="Path_110" data-name="Path 110" d="M165.414,65.2a2.055,2.055,0,0,0,.416,1.385,1.451,1.451,0,0,0,2.138,0,2.108,2.108,0,0,0,.4-1.406,2.027,2.027,0,0,0-.4-1.379,1.489,1.489,0,0,0-2.149,0,2.031,2.031,0,0,0-.413,1.392m-1.12.034a3.384,3.384,0,0,1,.254-1.377,2.315,2.315,0,0,1,.494-.736,2.135,2.135,0,0,1,.7-.483,2.926,2.926,0,0,1,1.148-.215,2.54,2.54,0,0,1,1.9.736,2.854,2.854,0,0,1,.709,2.052,2.821,2.821,0,0,1-.706,2.032,2.486,2.486,0,0,1-1.884.739,2.513,2.513,0,0,1-1.9-.734,2.762,2.762,0,0,1-.709-2.013" transform="translate(-44.505 -62.422)" fill="#283887"/>
      <path id="Path_111" data-name="Path 111" d="M175.215,65.8l-.755-1.99-.72,1.99Zm1.967,2.118h-1.16l-.464-1.22h-2.147l-.434,1.22h-1.16l2.053-5.35h1.16Z" transform="translate(-46.543 -62.461)" fill="#283887"/>
      <path id="Path_112" data-name="Path 112" d="M181.052,64.826h.785a4.467,4.467,0,0,0,.96-.066.565.565,0,0,0,.3-.228.7.7,0,0,0,.108-.4.644.644,0,0,0-.141-.438.673.673,0,0,0-.405-.213c-.086-.01-.344-.016-.776-.016h-.829Zm-1.081,3.092V62.569h2.265a3.852,3.852,0,0,1,1.232.141,1.22,1.22,0,0,1,.621.514,1.541,1.541,0,0,1,.23.84,1.46,1.46,0,0,1-.347,1,1.67,1.67,0,0,1-1.054.492,2.574,2.574,0,0,1,.578.452,5.669,5.669,0,0,1,.608.868l.65,1.046h-1.288l-.771-1.165a7.292,7.292,0,0,0-.564-.787.86.86,0,0,0-.329-.223,1.782,1.782,0,0,0-.537-.057h-.214v2.233Z" transform="translate(-48.752 -62.461)" fill="#283887"/>
      <path id="Path_113" data-name="Path 113" d="M188.439,63.465v3.551h.8a3.135,3.135,0,0,0,.65-.047,1,1,0,0,0,.43-.227,1.145,1.145,0,0,0,.282-.515,3.812,3.812,0,0,0,.109-.985,3.531,3.531,0,0,0-.109-.957,1.283,1.283,0,0,0-.307-.519,1.027,1.027,0,0,0-.5-.25,5,5,0,0,0-.879-.05Zm-1.075-.9h1.965a3.781,3.781,0,0,1,1.015.1,1.78,1.78,0,0,1,.8.494,2.294,2.294,0,0,1,.509.864,3.883,3.883,0,0,1,.174,1.267,3.46,3.46,0,0,1-.164,1.137,2.314,2.314,0,0,1-.571.946,1.828,1.828,0,0,1-.752.427,3.213,3.213,0,0,1-.95.114h-2.025Z" transform="translate(-50.755 -62.461)" fill="#283887"/>
    </g>
    <g id="Group_106" data-name="Group 106" transform="translate(187.91 66.709)">
      <path id="Path_86" data-name="Path 86" d="M82.657,1.343l7.087,7.052-4.005,3.96s-3.954-3.871-4.647-4.563a.749.749,0,0,0-1.215.044l-.732,1.016v5.859H82.28v4.153H79.145V33.578l-5.688-3.859V11.178Z" transform="translate(-65.239 -1.343)" fill="#283887" stroke="#ebb437" stroke-width="0.4"/>
      <path id="Path_88" data-name="Path 88" d="M94.69,30.6l-3.375,4.117-5.007-3.5-.449.445c-.651,1.14.168,1.419.168,1.419l8.663,6.311L87.442,49.657h-5.57l-8.217-5.414V37.934s6.755,4.687,9.524,6.465,4.234-.443,4.234-.443l1.632-2.234-8.636-6.679L88.058,25.6Z" transform="translate(-65.291 -4.919)" fill="#283887" stroke="#ebb437" stroke-width="0.4"/>
      <path id="Path_82" data-name="Path 82" d="M70.012,6.609l-3.814,4.1L62.184,6.732l3.973-4.1Z" transform="translate(-62.184 -1.693)" fill="#283887" stroke="#ebb437" stroke-width="0.4"/>
      <path id="Path_84" data-name="Path 84" d="M69.179,13.425v25.81l-5.453,3.656v-25.8Z" transform="translate(-62.602 -3.107)" fill="#283887" stroke="#ebb437" stroke-width="0.4"/>
      <path id="Path_114" data-name="Path 114" d="M108.317,30.253a1.936,1.936,0,0,0,1.551,1.126,15.414,15.414,0,0,1,2.688,1.156V26.991a2.169,2.169,0,0,0-1.371-2.389l-2.867,1.522ZM107.55.368V21.982l5.092-2.689c4.26.817,4.389,6.471,4.389,6.471v7.29L109.54,39.52l-3.74-2.111c-4.679,3.827-8.746,3.706-8.746,3.706a14.943,14.943,0,0,0,5.492-10.792V3.911Z" transform="translate(-71.63 3.623)" fill="#283887" stroke="#ebb437" stroke-width="0.4"/>
    </g>
  </g>
</svg>
